<svg width="16" height="16" fill="none" xmlns="http://www.w3.org/2000/svg"><g clip-path="url(#a)"><path d="M8 4.667c-.367 0-.667.3-.667.666v2h-2c-.366 0-.666.3-.666.667 0 .367.3.667.666.667h2v2c0 .366.3.666.667.666.367 0 .667-.3.667-.666v-2h2c.366 0 .666-.3.666-.667 0-.367-.3-.667-.666-.667h-2v-2c0-.366-.3-.666-.667-.666Zm0-3.334A6.67 6.67 0 0 0 1.333 8 6.67 6.67 0 0 0 8 14.667 6.67 6.67 0 0 0 14.667 8 6.67 6.67 0 0 0 8 1.333Zm0 12A5.34 5.34 0 0 1 2.667 8 5.34 5.34 0 0 1 8 2.667 5.34 5.34 0 0 1 13.333 8 5.34 5.34 0 0 1 8 13.333Z" fill="#9873FF"/></g><defs><clipPath id="a"><path fill="#fff" d="M0 0h16v16H0z"/></clipPath></defs></svg>